<?xml version="1.0" encoding="UTF-8"?>
<svg width="26px" height="26px" viewBox="0 0 26 26" version="1.1" xmlns="http://www.w3.org/2000/svg" xmlns:xlink="http://www.w3.org/1999/xlink">
    <!-- Generator: Sketch 61.2 (89653) - https://sketch.com -->
    <title>fb</title>
    <desc>Created with Sketch.</desc>
    <g id="fb" stroke="none" stroke-width="1" fill="none" fill-rule="evenodd" stroke-linejoin="round">
        <g id="Group-3" transform="translate(2.000000, 3.000000)" stroke="#1D1D1D" stroke-width="2">
            <polygon id="Stroke-1" points="-8.39328607e-13 17.42532 6.71176 17.42532 6.71176 6.33732 -8.39328607e-13 6.33732"></polygon>
            <path d="M6.711672,7.84872 C6.711672,7.84872 12.224872,6.89744 14.211912,1.28568 C14.489992,0.5016 15.258232,-8.79296636e-13 16.090712,-8.79296636e-13 C17.257592,-8.79296636e-13 18.185112,0.98472 18.105912,2.14896 C18.017912,3.43904 17.870072,5.038 17.634232,6.13536 C17.511912,6.7056 17.944872,7.23976 18.528312,7.23976 L20.159832,7.23976 C21.061832,7.23976 21.731512,8.07312 21.539672,8.954 L20.001432,15.98432 C19.721592,17.26208 18.607512,18.18696 17.298952,18.21248 C14.351832,18.27232 9.842712,18.12976 6.711672,16.57568" id="Stroke-3"></path>
        </g>
    </g>
</svg>